<?xml version="1.0" standalone="no"?>
<svg viewBox="-350 -150 1500 1500" xmlns="http://www.w3.org/2000/svg" style="width: 390px; height: 390px; justify-content: center; align-self: center; transform: scale(1, 1);"><rect x="-350" y="-150" width="100%" height="100%" fill="#ffffff" rx="30"></rect><g transform="rotate(0 415.9125728607178 572.9852142333984)"><g id="body_Coffee" data-name="body/Coffee" transform="translate(0 459)"><rect id="_Cup" data-name="â˜•ï¸ Cup" width="229" height="282" transform="translate(461 279)" fill="#fdea6b"></rect><path id="_Skin" data-name="âœ‹ Skin" d="M138.156,716.926h-.015a7.574,7.574,0,0,1-5.939-2.6,9.854,9.854,0,0,1-2-7.836c1.015-6.725,2-13.565,2.951-20.179l0-.011,0-.025c.525-3.648,1.068-7.42,1.61-11.13a249.267,249.267,0,0,1-63.394,8.715,196.276,196.276,0,0,1-27.022-1.834A174.95,174.95,0,0,1,17.771,676.2c-.416-.424-.572-.771-.462-1.031.19-.453,1.146-.663,3.01-.663.7,0,1.425.027,2.172.058l.173.007c.641.026,1.246.051,1.737.051a4.035,4.035,0,0,0,.993-.079A52.221,52.221,0,0,1,8.3,655.329a63.709,63.709,0,0,1-4.648-11.683,85.987,85.987,0,0,1-2.612-12.634,149.288,149.288,0,0,1-.8-26.827c.436-9.074,1.38-18.059,2.292-26.747l0-.015c.5-4.8.98-9.338,1.356-13.734,3.2-20.636,6.115-42.069,8.934-62.8l0-.017c7.2-52.933,14.645-107.667,28.012-159.773,3.453-13.46,7.233-26.45,11.236-38.609,4.29-13.032,9.009-25.637,14.024-37.465,5.313-12.53,11.153-24.647,17.358-36.016A360.318,360.318,0,0,1,104.7,194.751a247.02,247.02,0,0,1,26.925-30.586,225.748,225.748,0,0,1,31.822-25.546,197.158,197.158,0,0,1,35.969-18.858,173.423,173.423,0,0,1,39.365-10.519l1.51-.206c2.608-.348,5.322-.664,7.947-.969,13.757-1.6,27.979-3.256,39.611-10.492,6.05-4.829,10.7-11.171,15.207-17.3,3.548-4.832,6.9-9.4,10.646-12.8a23.8,23.8,0,0,1,5.974-4.094,16.724,16.724,0,0,1,6.949-1.592h.085a13.278,13.278,0,0,1,6.166,2.022c2.243,1.229,4.643,2.885,7.183,4.638,2.375,1.639,4.83,3.333,7.353,4.813.343-5.927,2.3-11.227,4.187-16.353a56.552,56.552,0,0,0,3.164-10.548l.1-.681c.243-1.77.378-3.524.508-5.219.557-7.256,1.083-14.108,9.833-21.285a68.619,68.619,0,0,1,13.729-7.862,120.026,120.026,0,0,1,17.415-6.05,155.17,155.17,0,0,1,19.522-3.888A151.408,151.408,0,0,1,435.92,0a107.645,107.645,0,0,1,23.557,2.389c7.534,1.7,13.836,4.27,18.733,7.634a63.745,63.745,0,0,1,12.1,10.959,73.845,73.845,0,0,1,8.668,12.7c4.895,8.936,8.216,18.511,11.733,28.649,2.55,7.35,5.186,14.949,8.482,22.3a20.055,20.055,0,0,1,8.608-1.766,32.215,32.215,0,0,1,15.517,4.272,25.529,25.529,0,0,1,6.013,4.672,15.213,15.213,0,0,1,3.512,5.769c2.4,2.921,3.466,8.94,4.5,14.761v.006c.75,4.236,1.458,8.237,2.639,11.039,7.61,1.211,14.993,2.748,21.943,4.566a189.37,189.37,0,0,1,19.637,6.268,162.076,162.076,0,0,1,17.478,7.877,145.67,145.67,0,0,1,15.467,9.393,138.71,138.71,0,0,1,13.6,10.815A140.347,140.347,0,0,1,660,174.444a150.443,150.443,0,0,1,10.321,13.381,169.62,169.62,0,0,1,8.9,14.524,216,216,0,0,1,14.131,32.106,336.618,336.618,0,0,1,10.223,35.561c5.494,23.491,9.349,48.374,13.447,78.509,5.474,30.877,13.016,62.283,20.31,92.654v.005h0c4.732,19.7,9.624,40.076,13.923,60.173,4.823,22.546,8.365,42.322,10.828,60.458a474.943,474.943,0,0,1,4.6,60.873c.075,10.4-.266,20.708-1.014,30.633-.785,10.415-2.045,20.773-3.745,30.785a65.121,65.121,0,0,1,6.354,11.418,11.247,11.247,0,0,1,1.521,6.053,12.663,12.663,0,0,1-1.676,5.878,10.99,10.99,0,0,1-9.509,5.791h-.006c-.162,0-.328,0-.493-.012-3.249-.285-6.539-.605-9.721-.914h-.013c-8.083-.785-16.44-1.6-24.738-1.907-16.838-.585-34.969-.869-55.428-.869-11.929,0-24.891.094-40.793.3l-4.373.058c-64.888.807-130.839,1.948-194.618,3.052C333.3,714.595,234.922,716.3,138.156,716.926ZM492.333,354.663v0c-2.216,9.559,1.359,17.335,5.143,25.567a88.084,88.084,0,0,1,5.311,13.509c.9,3.279.557,8.343.254,12.81-.124,1.822-.241,3.542-.254,4.939.168,2.678,1.6,5.632,2.989,8.488,1.766,3.638,3.591,7.4,2.969,10.786-1.461,7.955-5.356,15.943-9.123,23.668-3.209,6.581-6.527,13.386-8.247,20.035a35.336,35.336,0,0,0-1.24,9.956,26.462,26.462,0,0,0,2.2,9.928c6,11.8,24.08,17.852,36.044,21.854l.06.02a52.778,52.778,0,0,0,10.5,2.749,74.265,74.265,0,0,0,11.739.894,95.721,95.721,0,0,0,34.933-6.78,70.652,70.652,0,0,0,14.864-8.024,43.021,43.021,0,0,0,10.717-10.714c4.83-7.184,10.229-21.449,14.566-32.91,2.668-7.05,4.971-13.135,6.691-16.492l1.02-14.243c1.188-16.724,2.447-35.814,2.354-50.71-.1-16.544-1.845-25.761-5.324-28.177-7.73-5.37-18.823-9.35-32.97-11.827a236.1,236.1,0,0,0-40.161-3.045c-15.058,0-28.274,1.009-36.709,1.855-9.8.984-15.988,2.029-16.515,2.375-1.2.791-2.22,1.388-3.118,1.915-2.491,1.462-3.994,2.345-5.787,5.177-2.385.317-4.818.651-7.231.994-1.6.524-2.44,1.608-2.235,2.9a3.285,3.285,0,0,0,1.328,2.04,4.764,4.764,0,0,0,2.9.914,6.57,6.57,0,0,0,2.331-.451Z" transform="translate(29 -16)" fill="#d08b5b"></path><path id="_Top" data-name="ðŸ‘• Top" d="M138.141,655.075a7.574,7.574,0,0,1-5.939-2.6,9.854,9.854,0,0,1-2-7.836c1.018-6.741,2-13.578,2.953-20.189l.023-.162c.519-3.6,1.055-7.33,1.59-10.994a249.265,249.265,0,0,1-63.394,8.715,196.278,196.278,0,0,1-27.022-1.834,174.942,174.942,0,0,1-26.584-5.819c-.416-.424-.571-.771-.462-1.031.19-.453,1.146-.663,3.01-.663.7,0,1.424.027,2.172.058l.173.007c.642.026,1.248.051,1.737.051a4.034,4.034,0,0,0,.993-.079A52.222,52.222,0,0,1,8.3,593.478a63.708,63.708,0,0,1-4.648-11.683A85.977,85.977,0,0,1,1.043,569.16a149.288,149.288,0,0,1-.8-26.827c.436-9.074,1.38-18.059,2.292-26.747.5-4.805.981-9.344,1.358-13.749,3.2-20.636,6.115-42.068,8.934-62.8l0-.017c7.2-52.933,14.645-107.667,28.012-159.773,3.453-13.46,7.233-26.45,11.236-38.609,4.29-13.032,9.008-25.637,14.024-37.465,5.313-12.53,11.153-24.647,17.358-36.016A360.316,360.316,0,0,1,104.7,132.9a247.02,247.02,0,0,1,26.925-30.586,225.749,225.749,0,0,1,31.822-25.546A197.159,197.159,0,0,1,199.418,57.91a173.423,173.423,0,0,1,39.365-10.519l1.51-.206,1.52-.2c2.121-.27,4.311-.525,6.43-.771,13.755-1.6,27.978-3.255,39.608-10.492,6.049-4.829,10.7-11.171,15.207-17.3,3.4-4.629,6.608-9,10.164-12.353a25.452,25.452,0,0,1,5.638-4.136A16.949,16.949,0,0,1,325.345,0l9.928,6.092,57.659,28.5c5.563,1.558,9.794,3.294,12.575,5.161s4.192,3.916,4.192,6.092V90.366c0,2.965,2.647,7.875,7.867,14.595s13.162,15.438,23.6,25.912l19.382-19.321-.434-2.53c-1.836-10.852-2.767-18.211-2.767-21.875,0-.986,1.2-2.684,3.555-5.047a130.319,130.319,0,0,1,10.666-9.2c9.437-7.483,23.791-17.866,42.664-30.86l16.591-15.62-1.769-5.379a30.879,30.879,0,0,1,7.686,1.387,32.562,32.562,0,0,1,7.12,3.173c4.624,2.781,7.815,6.376,8.985,10.123,2.4,2.921,3.466,8.94,4.5,14.761v.006c.75,4.236,1.458,8.237,2.639,11.039,7.61,1.211,14.993,2.748,21.943,4.566a189.368,189.368,0,0,1,19.637,6.268,162.076,162.076,0,0,1,17.478,7.877,145.67,145.67,0,0,1,15.467,9.393,138.709,138.709,0,0,1,13.6,10.815A140.344,140.344,0,0,1,660,112.593a150.444,150.444,0,0,1,10.321,13.381,169.621,169.621,0,0,1,8.9,14.524A216,216,0,0,1,693.354,172.6a336.619,336.619,0,0,1,10.223,35.561c5.494,23.491,9.349,48.374,13.447,78.509,5.474,30.877,13.016,62.283,20.31,92.654v.005h0c4.732,19.7,9.624,40.076,13.923,60.173,4.823,22.546,8.365,42.322,10.828,60.458a474.944,474.944,0,0,1,4.6,60.873c.075,10.4-.266,20.708-1.014,30.633-.785,10.415-2.045,20.772-3.745,30.785a65.114,65.114,0,0,1,6.354,11.418,11.246,11.246,0,0,1,1.521,6.053,12.664,12.664,0,0,1-1.676,5.878,10.99,10.99,0,0,1-9.509,5.791h-.006c-.161,0-.327,0-.493-.011-3.238-.285-6.52-.6-9.694-.912l-.027,0c-8.089-.786-16.45-1.6-24.751-1.908-16.843-.585-34.974-.869-55.43-.869-11.927,0-24.888.094-40.791.3l-4.373.058c-64.865.807-130.816,1.948-194.594,3.051h-.022c-95.138,1.646-193.514,3.347-290.281,3.977ZM302.573,391.284l-8.024,58.2,19.3,41.559,43.7-14.721,71.21-18.77L469.618,416.1l23.05-7.738a42.407,42.407,0,0,0-2.519,12.091,26.818,26.818,0,0,0,2.184,12.048c6,11.8,24.08,17.852,36.044,21.854l.06.02a52.789,52.789,0,0,0,10.5,2.75,74.261,74.261,0,0,0,11.739.894,95.727,95.727,0,0,0,34.933-6.78,70.655,70.655,0,0,0,14.864-8.024A43.02,43.02,0,0,0,611.188,432.5c4.83-7.184,10.229-21.449,14.566-32.91,2.668-7.05,4.971-13.135,6.691-16.492l1.319-18.5c1.17-16.8,2.227-34.273,2.037-48.186-.211-15.458-1.947-24.107-5.307-26.441-7.73-5.37-18.823-9.349-32.97-11.827a236.1,236.1,0,0,0-40.161-3.045c-15.058,0-28.274,1.009-36.709,1.855-9.8.984-15.988,2.029-16.515,2.375-1.2.791-2.22,1.388-3.118,1.915-2.491,1.462-3.994,2.345-5.787,5.177l-1.264.169,7.111-9.645-2.517-1.345c-8.943-4.742-16.426-8.348-22.242-10.719s-10.13-3.573-12.82-3.573c-2.815,0-7.164,2.216-12.928,6.586a225.622,225.622,0,0,0-21.818,19.759l-1.543.713a274.3,274.3,0,0,0-26.389,13.77c-6.978,4.244-12.251,8.219-15.674,11.815l-.246.26c-6.918,7.422-20.8,27.427-41.275,59.459l-29.786,17.616Zm199.674-61.213-10.768-20.614V293.08a7.31,7.31,0,0,0,.854-.268c-2.216,9.56,1.358,17.336,5.142,25.569a99.619,99.619,0,0,1,4.773,11.689Z" transform="translate(29 45.851)" fill="#9ddadb"></path><path id="_Ink" data-name="ðŸ– Ink" d="M145.082,687.489a7.273,7.273,0,0,1-3.363-.824l-.243-.133-.408-.234a8.148,8.148,0,0,1-3.277-3.809,6.751,6.751,0,0,1-.3-4.981,112,112,0,0,0,3.559-12.762c.88-3.719,1.789-7.562,3.025-11.239l-2.1.937-2.763,1.2a273.17,273.17,0,0,1-34.7,12.714c-13.107,3.679-24.96,5.468-36.236,5.468A94.56,94.56,0,0,1,43.6,670.64a64.759,64.759,0,0,1-20.208-9.2A47.013,47.013,0,0,1,8.572,645.092a66.293,66.293,0,0,1-6.744-21.058A166.607,166.607,0,0,1,.113,601.862a347.237,347.237,0,0,1,2.9-54.514,331.067,331.067,0,0,1,6.54-36.3,8.969,8.969,0,0,1-2.971-5.721c-1.148-9.266.276-18.878,1.652-28.174l0-.025c.312-2.109.635-4.289.918-6.409,1.572-11.773,3.194-22.619,4.961-33.156,3.844-22.936,8.256-45.3,13.113-66.469,4.421-19.271,9.661-38.845,15.575-58.177,5.782-18.9,12.358-38.067,19.548-56.966l1.251-3.27c7.435-19.331,14.581-35.875,21.845-50.576a351.226,351.226,0,0,1,27.9-47.45A214.113,214.113,0,0,1,129.432,134.2a122.612,122.612,0,0,1,19.234-17.431c12.277-8.873,26.784-16.1,44.35-22.1A240.839,240.839,0,0,1,216.873,87.9c7.819-1.8,16.027-3.283,24.4-4.423,2.482-.338,5.025-.661,7.485-.974,14.31-1.821,29.106-3.7,42.352-9.527a7.27,7.27,0,0,1-.464-5.742,8.9,8.9,0,0,1,3.5-4.737c9.694-6.4,18.757-14.488,27.522-22.306,1.283-1.144,2.609-2.327,3.922-3.49a2.89,2.89,0,0,1,1.93-.765,2.941,2.941,0,0,1,2.471,1.4,2.723,2.723,0,0,1,.015,2.77A112.925,112.925,0,0,1,318.484,58.34c-2.859,3.543-5.912,6.872-8.786,9.942,7.6,6.572,14.053,14.6,20.3,22.362l.383.476c1.944,2.416,3.885,4.887,5.763,7.277,5.916,7.529,12.033,15.313,18.87,22.241a80.886,80.886,0,0,0,14.177,11.554,79.122,79.122,0,0,0,16.423,7.948l2.4.833a95.218,95.218,0,0,1,17.667,7.91c6.19,3.756,10.691,8.088,13.76,13.244a2.474,2.474,0,0,1,0,2.548,2.745,2.745,0,0,1-2.314,1.42,2.4,2.4,0,0,1-1.28-.376c-7.456-4.617-15.9-6.925-24.071-9.157-4.66-1.273-9.478-2.59-14.089-4.323a90.765,90.765,0,0,1-17.3-8.734,102.348,102.348,0,0,1-15.182-12.076c-7.843-7.517-14.765-16.045-21.458-24.291l-.034-.042c-1.367-1.684-2.78-3.425-4.18-5.131a221.583,221.583,0,0,0-26.689-26.945A102.219,102.219,0,0,1,269.07,86.544c-8.022,2.791-16.329,4.913-25.577,7.2l-1.894.469c-10.127,2.507-18.348,4.794-25.871,7.2A219.245,219.245,0,0,0,190.662,111a204,204,0,0,0-21.1,11.06,120.954,120.954,0,0,0-19.1,14.166c-12.794,11.741-22.678,26.906-30.939,40.2a387.374,387.374,0,0,0-25.809,49.74c-6.6,15.1-13.006,31.736-20.152,52.34-6.315,18.212-12.221,36.928-17.553,55.629C50.722,352.68,45.86,371.694,41.56,390.647c-4.231,18.652-7.78,37.716-10.85,58.28-1.39,9.309-2.652,18.839-3.752,28.327-.284,2.448-.518,4.956-.745,7.382l0,.021c-.711,7.6-1.446,15.458-3.793,22.814a8.451,8.451,0,0,1-2.968,4.377,7.142,7.142,0,0,1-4.272,1.376c-.123,0-.247,0-.369-.009l-.638,7.979c-.814,10.231-1.631,21.128-1.9,31.983-.483,19.463-.144,36.9,1.039,53.3l.181,2.422a97.888,97.888,0,0,0,3.223,19.811c2.147,7.262,5.345,12.89,9.778,17.206,4.656,4.535,10.812,7.957,18.294,10.169a77.606,77.606,0,0,0,20.928,2.929c.434.005.866.008,1.285.008a113.916,113.916,0,0,0,22.227-2.312,164.53,164.53,0,0,0,21.722-6.026c14.291-4.953,28.137-11.452,41.528-17.738l3.466-1.626c14.188-6.646,28.568-13.839,42.74-21.38,13.8-7.343,27.812-15.232,41.643-23.447,13.812-8.2,27.744-16.844,41.408-25.681,6.636-4.293,13.341-8.736,19.93-13.2,1.315-.892,2.626-1.828,3.894-2.734l0,0c2.36-1.685,4.8-3.427,7.3-4.907a6.176,6.176,0,0,1-1.872-3.215,4.854,4.854,0,0,1,.725-3.705,37.876,37.876,0,0,1-7.157-8.486,53.372,53.372,0,0,1-4.949-10.306,74.565,74.565,0,0,1-4.176-22c-.376-9.675.813-19.462,1.963-28.926l.006-.05c.184-1.515.374-3.082.555-4.621.679-5.789,1.516-11.5,2.318-16.816.14-.927.262-1.852.392-2.83.177-1.334.359-2.714.586-4.073-14.842,8.156-30.2,16.03-45.647,23.406-15.24,7.277-31.016,14.283-46.891,20.823-15.707,6.472-31.848,12.43-49.344,18.214l-3.379,1.112c-9.562,3.13-16.948,5.393-23.947,7.335-8.831,2.451-16.795,4.307-24.347,5.674a.829.829,0,0,1-.148.013.99.99,0,0,1-.925-.777.658.658,0,0,1,.423-.778c10.561-4.66,21.539-8.9,32.155-13.007,5.376-2.078,10.936-4.227,16.371-6.4l2.654-1.081a5.316,5.316,0,0,1-.951-.138c-6.7-1.618-13.455-3.884-19.984-6.076l-.016-.005c-2.679-.9-5.449-1.829-8.159-2.694s-5.578-1.644-8.354-2.4c-6.138-1.667-12.486-3.39-18.015-6.241a.564.564,0,0,1-.313-.641.732.732,0,0,1,.645-.582c.908-.063,1.859-.095,2.827-.095,6.188,0,12.624,1.271,18.848,2.5,2.111.417,4.1.811,6.1,1.159l3.336.584c5.113.9,11.055,1.984,16.863,3.427a7.127,7.127,0,0,1,2.723-4.831c13.552-10.036,14.688-28.547,15.691-44.879v-.009c.206-3.346.4-6.506.693-9.532l1.293-13.344c2.193-22.526,4.642-46.478,8.332-69.889a.889.889,0,0,1,.932-.775,1.14,1.14,0,0,1,1.186,1.061c.13,19.688-.865,39.646-1.827,58.947-.442,8.87-.9,18.042-1.242,27.08l-.168,4.707-.025.742c-.591,17.47-1.2,35.533-12.2,48.965a4.527,4.527,0,0,1,2.247-.624,3.436,3.436,0,0,1,2.683,1.214,9.191,9.191,0,0,1,2.42,5.956c9.7-4.067,19.825-8.434,30.088-12.98,15.762-6.983,31.782-14.57,47.615-22.548,15.405-7.764,31.046-16.106,46.487-24.8a5.836,5.836,0,0,1,8.05,2.047l.235-.034a1.011,1.011,0,0,1,.12-.01l.233-.011h.026a9.245,9.245,0,0,1,4.507-1.1,14.165,14.165,0,0,1,9.36,3.871c.089.086.171.18.244.263l.055.063a49.622,49.622,0,0,0,13.009-8.528,104.48,104.48,0,0,0,11.283-12.118c3.169-3.944,6.339-8.341,9.691-13.441,2.745-4.178,5.432-8.546,8.031-12.771,3.943-6.409,8.02-13.035,12.437-19.238A111.4,111.4,0,0,1,390.1,344.456a89.081,89.081,0,0,1,20.067-13.869,122.326,122.326,0,0,1,22.8-8.74,1.555,1.555,0,0,1,.427-1.276,2.2,2.2,0,0,1,1.509-.862,2.148,2.148,0,0,1,.922.249.374.374,0,0,1,.167.158l1.536-2.625c1.117-1.9,1.752-2.926,2-3.237,1.775-2.236,3.624-4.48,5.5-6.672a47.4,47.4,0,0,1,10.956-9.925,20.742,20.742,0,0,1,11.175-3.09c5.6,0,11.333,1.872,16.874,3.682l.127.041c3.705,1.21,7.463,2.467,11.1,3.682l.1.033c1.91.638,3.885,1.3,5.828,1.944l.585.192c.35.112.7.223,1.094.345a30.468,30.468,0,0,1,5.825,2.27,8.871,8.871,0,0,1,4.671,9.817,191.481,191.481,0,0,1,47.109-5.607,246.192,246.192,0,0,1,39.141,3.247,285.378,285.378,0,0,1,37.779,8.832,4.746,4.746,0,0,1,3.325,3.324,286.242,286.242,0,0,1,4.678,34.905,227.7,227.7,0,0,1-.217,35.2,198.856,198.856,0,0,1-4.832,29.926,161.721,161.721,0,0,1-9.851,28.645l-.48,1.045c-5.02,10.854-10.135,19.446-15.637,26.268a62.274,62.274,0,0,1-10.9,10.747,40.018,40.018,0,0,1-13.2,6.684,56.632,56.632,0,0,1-15.52,1.841c-4.546,0-9.165-.329-13.633-.646-2.345-.167-4.77-.339-7.111-.457-2.584-.13-5.228-.237-7.785-.341h-.006c-8.861-.359-18.023-.729-26.852-2.131a42.808,42.808,0,0,1-14.1-4.713,35.748,35.748,0,0,1-11.2-9.692c-5.443-7.163-8.306-15.9-10.589-24.271-1.228.391-2.237.744-3.173,1.11a34.9,34.9,0,0,0-11.517,7.769c-3.226,3.125-6.173,6.609-9.024,9.979a112.484,112.484,0,0,1-11.094,11.9,85.169,85.169,0,0,1-22.7,14.169,148.748,148.748,0,0,1-21.613,7.238c-7.344,1.913-14.921,3.477-22.247,4.99l-.062.013c-3.153.651-6.414,1.325-9.613,2.017l-1.262.275c-5.7,1.25-13.159,2.986-20.368,5.335a95.757,95.757,0,0,0-19.17,8.412,8.19,8.19,0,0,1-2.71,5.337,6.817,6.817,0,0,1,2.071,3.688,6.122,6.122,0,0,1-.916,4.414c-4.352,6.907-11.4,11.363-18.209,15.673l-.009.006c-1.318.834-2.682,1.7-4,2.56l-.524.346c-7.878,5.223-15.937,10.415-23.951,15.43-15.7,9.827-32.055,19.374-50.015,29.184-13.945,7.618-27.842,14.9-41.305,21.64-14.188,7.1-28.36,13.842-42.122,20.028a93.579,93.579,0,0,1,1.4,13.971,114.62,114.62,0,0,0,.956,11.451l.2,1.2a8.173,8.173,0,0,1-2.345,7.785l-.228.209,0-.028-.2.185-.068.057.023-.018a7.265,7.265,0,0,1-.765.62l-.333.214A6.739,6.739,0,0,1,145.082,687.489ZM307.618,436.868c.01.693.012,1.406.015,2.035,0,1.023.008,1.989.034,2.951.115,4.367.174,9.023.174,13.838,0,3.488-.068,7.033-.134,10.461-.117,6.074-.238,12.353.019,18.522a82.571,82.571,0,0,0,1.428,12.887,43.736,43.736,0,0,0,4.236,12.207,32.871,32.871,0,0,0,5.214,7.2,49.123,49.123,0,0,0,6.552,5.649,106.471,106.471,0,0,1,18.667-8.886A180.006,180.006,0,0,1,363.8,507.76c5.337-1.3,10.806-2.476,16.1-3.615l.007,0c10.925-2.352,22.222-4.783,32.99-8.419a86.782,86.782,0,0,0,21.793-10.619c6.532-4.5,11.736-10.571,16.767-16.438l.057-.067q.655-.764,1.312-1.527l.873-1.008c5.55-6.366,11.814-12.752,19.993-16.35a61.463,61.463,0,0,1,8.642-2.78c4.807-1.293,9.775-2.63,13.523-5.549,3.112-2.426,3.424-5.874,3.754-9.525l.019-.214a18.619,18.619,0,0,1-2.656.177,48.206,48.206,0,0,1-6.617-.621l-.014,0c-.855-.12-1.738-.244-2.593-.344l-2.008-.235a81.514,81.514,0,0,1-10.851-1.847.709.709,0,0,1,0-1.356,90.322,90.322,0,0,1,12.333-2.02l.527-.062,1.027-.128c.5-.066,1.016-.137,1.514-.206l.012,0a48.79,48.79,0,0,1,6.621-.614,17.4,17.4,0,0,1,3.842.391,32.775,32.775,0,0,1,3.111-7.708c.6-1.077,1.349-2.182,2.144-3.352,1.836-2.7,3.733-5.5,4.086-8.394a6.77,6.77,0,0,0-.723-3.8l-.2-.374a3.162,3.162,0,0,0-.963-1.161.823.823,0,0,1-.365.185,5.863,5.863,0,0,1-6.97-2.773,110.375,110.375,0,0,1-11.944.591c-2.041.027-3.969.053-5.828.136l-5.563.269c-1.831.084-4.242.18-6.652.181a52.349,52.349,0,0,1-11.092-.99.982.982,0,0,1-.711-.9.847.847,0,0,1,.476-.9c5.963-2.55,12.9-3.573,19.6-4.561.974-.144,1.981-.292,2.95-.441,2.732-.42,5.523-.779,8.223-1.126l.067-.009c1.335-.172,2.715-.349,4.07-.532.878-.118,1.792-.265,2.677-.406h.008a55.3,55.3,0,0,1,5.808-.72,16.44,16.44,0,0,0,3.382-7.477,18.327,18.327,0,0,0-.362-7.957,17.863,17.863,0,0,0-3.5-6.788,15,15,0,0,0-6.154-4.452,10.925,10.925,0,0,1-4.543.9,32.5,32.5,0,0,1-3.885-.317l-.014,0c-.761-.092-1.547-.187-2.361-.257-4.385-.376-8.015-.551-11.425-.551h-.415a98.08,98.08,0,0,0-9.818.72,96.753,96.753,0,0,1-10.138.727,36.791,36.791,0,0,1-4.209-.224,2.09,2.09,0,0,1-1.676-1.417,1.326,1.326,0,0,1,.484-1.464,29.607,29.607,0,0,1,10.512-5.218,79.848,79.848,0,0,1,11.725-2.326l1.58-.211c.69-.09,1.43-.193,2.146-.293,2.053-.285,4.376-.608,6.742-.822a5.062,5.062,0,0,1,4-2.764c.528-.072,1.064-.118,1.583-.162l.174-.015-.009-.058a3.536,3.536,0,0,0,2.944-1.775c1.633-2.6,1.291-7.374.326-9.655-1.167-2.758-3.572-4.763-7.149-5.959a32.783,32.783,0,0,0-10.207-1.361c-1.5,0-3.062.058-4.9.182a146.081,146.081,0,0,0-26.421,4.222,115.68,115.68,0,0,0-24.99,9.41,77.332,77.332,0,0,0-20.541,15.908,144.57,144.57,0,0,0-15.786,20.76l-.45.7c-1.545,2.4-3.116,4.933-4.635,7.381l-.01.015c-3.923,6.322-7.979,12.859-12.575,18.842a70.269,70.269,0,0,1-15.865,15.607c-8.881,6.063-17.387,10.028-25.28,11.785A4.636,4.636,0,0,1,318.3,435.9l-.615.141a38.5,38.5,0,0,1-7.819.938A20.86,20.86,0,0,1,307.618,436.868ZM161.993,487.562a3.925,3.925,0,0,1-.276.374l-.152.176.788-.319ZM539.474,317.177c-8.869,0-17.9.239-26.389.483a14.386,14.386,0,0,1-4.914,6.907,13.517,13.517,0,0,1-7.793,3.065,22.843,22.843,0,0,1,3.586,10.956,24.137,24.137,0,0,1-1.868,11.252,30.006,30.006,0,0,1,8.725,5.3,27.9,27.9,0,0,1,6.448,8.262,28.868,28.868,0,0,1,2.5,6.885,28.153,28.153,0,0,1,.663,7.011,29.894,29.894,0,0,1-3.716,13.385,18.109,18.109,0,0,1,4.526,6.619,19.346,19.346,0,0,1,1.434,8.022c-.227,5.314-3.041,9.926-5.762,14.385-.351.575-.713,1.168-1.059,1.747-2.615,4.376-3.176,8.321-3.826,12.888-.15,1.053-.3,2.141-.49,3.272a20.638,20.638,0,0,1-5.2,10.82,28.927,28.927,0,0,1-9.861,6.706l.407,1.6a81.2,81.2,0,0,0,3.663,11.486,30.533,30.533,0,0,0,6.415,9.936c6.723,6.7,16.944,7.138,25.962,7.527.774.033,1.471.064,2.16.1l.463.022c7.158.358,14.432.773,21.467,1.174h.015l.054,0,4.814.274,6.587.368c2.066.114,4.5.23,6.9.23a43.057,43.057,0,0,0,11.056-1.216,26.337,26.337,0,0,0,10.123-5.077c6.193-5.014,11.961-11.936,17.143-20.576a143.2,143.2,0,0,0,11.421-24.382,163.788,163.788,0,0,0,7.031-25.7,193.117,193.117,0,0,0,3.078-26.443,234.181,234.181,0,0,0-.28-26.7c-.564-8.549-1.588-17.459-3.042-26.482a292.04,292.04,0,0,0-58.232-12.5A316.135,316.135,0,0,0,539.474,317.177ZM472.3,315.426a49.132,49.132,0,0,1,12,1.345,28.927,28.927,0,0,1,10.436,4.856c.013-.021.024-.043.035-.064s.034-.065.055-.1a26.315,26.315,0,0,1,3.315-3.882l.039-.041c.113-.107.226-.219.346-.344l.669-.712-1.529-.529c-2.329-.824-4.944-1.81-6.507-2.4-.63-.238-1.084-.409-1.261-.472l-.042-.014-2.132-.721-.007,0c-3.4-1.151-6.925-2.341-10.371-3.562-.615-.218-1.221-.445-1.863-.687-2.779-1.043-5.653-2.122-8.554-2.122a10.647,10.647,0,0,0-1.7.133,20.207,20.207,0,0,0-8.033,3.545,78.7,78.7,0,0,0-7.336,5.934l-.007.006c-1.281,1.124-2.491,2.185-3.689,3.156l2.825-.549C456.506,316.763,464.53,315.427,472.3,315.426Zm190.64,371.121a3.03,3.03,0,0,1-1.885-.649,2.757,2.757,0,0,1-1.024-1.917l-.449-4.33a73.363,73.363,0,0,0-3.1-16.168,89.2,89.2,0,0,1-3.945-19.123c-1.157-10.238-1.672-20.738-2.1-30.614l-.3-7.069c-.956-22.085-1.363-43.669-1.211-64.151.164-21.988.978-43.56,2.421-64.118l.219-3.047c.908-12.347,1.793-21.8,2.872-30.66,1.381-11.342,3.06-21.393,5.133-30.727,5.042-22.706,12.507-41.369,22.823-57.056a.744.744,0,0,1,.635-.352.782.782,0,0,1,.612.292.73.73,0,0,1,.125.638c-5.189,21.255-10.456,44.095-13.833,67.1-1.327,9.038-2.344,18.29-3.108,28.284-.68,8.9-1.143,18.192-1.414,28.4-.5,18.958-.252,38.253-.008,56.913l0,.182c.041,3.15.084,6.407.122,9.608l.025,2.128c.224,19.689.558,42.985,1.335,66.491.089,2.7.2,5.458.31,8.123.342,8.4.7,17.086.395,25.586a75.939,75.939,0,0,1-1.292,10.219c-.43,2.479-.874,5.042-1.119,7.614a88.741,88.741,0,0,0,.056,13.15c.045.834.1,1.779.139,2.691a2.426,2.426,0,0,1-.61,1.843A2.477,2.477,0,0,1,662.938,686.547Zm110.421-1.854a8.922,8.922,0,0,1-6.448-2.629,6.4,6.4,0,0,1-1.732-4.914c1.54-23.4,2.806-48.539,1.66-73.8-1.108-24.373-3.426-49.177-6.889-73.724-2.152-15.256-5.135-30.624-8.02-45.486-1.007-5.186-2.048-10.548-3.045-15.865l-.6-3.226c-2.995-16.22-6.128-32.7-9.158-48.632l-.006-.03-.651-3.426-4.931-25.988c-6.736-35.464-14.658-76.64-23.441-116.528l-.5-2.275c-4.982-22.24-10.243-39.948-16.558-55.729a210.919,210.919,0,0,0-12.555-26.235,159.02,159.02,0,0,0-16.5-23.75,133.512,133.512,0,0,0-10-10.573c-3.384-3.21-7.048-6.355-10.89-9.347A188.312,188.312,0,0,0,619.2,126.851c-7.5-4.2-15.932-8.391-25.786-12.806-9.037-4.05-18.352-7.886-26.57-11.271a1.291,1.291,0,0,1-.815-1.466,1.1,1.1,0,0,1,1.107-.929,1.53,1.53,0,0,1,.352.043l2.851.68c19.871,4.76,40.943,10.2,60.913,19.74a131.236,131.236,0,0,1,26.977,17.247,142.279,142.279,0,0,1,22.188,23.088c11.681,15.219,21.062,33,28.679,54.346,7.24,20.293,12.059,41.56,15.818,59.687,4.437,21.394,8.756,43.184,12.932,64.256,4.581,23.115,9.318,47.016,14.228,70.477l1.742,8.354c5.215,25.082,9.055,44.428,12.453,62.728,4.244,22.857,7.669,43.5,10.471,63.1l.435,3.065c3.573,25.491,5.585,46.45,6.332,65.96.44,11.508.424,22.66-.048,33.147a312.293,312.293,0,0,1-3.175,32.9,6.129,6.129,0,0,1-2.461,4.172A7.568,7.568,0,0,1,773.359,684.693Zm-301.29-36.7a4.755,4.755,0,0,1-4.548-3.25,55.074,55.074,0,0,1-2.147-16.167c-.025-5.577.458-11.192.926-16.621v-.015c.137-1.595.267-3.1.385-4.611l.724-9.316c.642-8.355,1.374-18.211,1.939-27.962.75-12.9,1.377-26.029,1.943-38.3.182-3.945.384-8.015.616-12.442l.337-6.218c.038-.683.071-1.385.1-2.064.218-4.658.443-9.475,2.32-13.655a1.7,1.7,0,0,1,1.623-.964,2.009,2.009,0,0,1,1.777.964c2.318,4.278,2.788,9.738,3.2,14.555l0,.024c.045.518.091,1.053.138,1.571l.051.552c.745,7.872,1.208,13.93,1.5,19.642.635,12.457.938,25.013.9,37.318-.045,14.307-.368,26.821-.986,38.257l-.186,3.416a147.928,147.928,0,0,1-1.734,17.078,52.2,52.2,0,0,1-5.21,16.033A4.071,4.071,0,0,1,472.069,647.992Zm-431.5-88.714a.526.526,0,0,1-.159-.025,4.69,4.69,0,0,1-3.071-2.421c-.688-1.511-.455-3.614.693-6.251,2.791-6.408,7.389-12.272,11.836-17.943l.077-.1q.654-.834,1.3-1.656A165.11,165.11,0,0,1,66.521,513.89l1.606-1.552c.621-.607,1.253-1.247,1.923-1.925a60.82,60.82,0,0,1,7.32-6.633c3.047-2.2,5.85-3.264,8.567-3.264.216,0,.434.007.65.021A4.382,4.382,0,0,1,90.745,506c-1.007,4.777-5.012,7.744-8.886,10.614-1.106.82-2.149,1.592-3.132,2.409-4.941,4.107-9.529,8.433-14.185,12.874-3.995,3.807-7.89,7.76-11.908,12.087l-1.441,1.561c-.244.267-.763.774-1.419,1.416l-.009.009c-3.117,3.048-9.6,9.391-8.727,11.29l.058.1a.542.542,0,0,1,.017.572A.637.637,0,0,1,40.567,559.278ZM420.514,435.6a9.026,9.026,0,0,1-6.334-2.687,14.353,14.353,0,0,1-3.677-6.437,26.619,26.619,0,0,1-.56-7.511c.056-2.954.113-6.009-.976-8.624a24.765,24.765,0,0,0-2.189-3.863,25.945,25.945,0,0,1-2.153-3.766,24.849,24.849,0,0,1-1.917-8.384,21.439,21.439,0,0,1,1.306-7.1c1.034-3.466,2.1-7.05.495-10a2.071,2.071,0,0,1,.088-1.979,1.5,1.5,0,0,1,1.311-.791h.037l.148.01a8.533,8.533,0,0,1,5.188,2.6,11.574,11.574,0,0,1,2.835,5.231,47.8,47.8,0,0,1,.979,5.61c.49,3.688.952,7.168,3.323,10.664,3.767,5.55,5.907,9.8,6.43,16.34.067.843.1,1.7.141,2.525v.012a31.415,31.415,0,0,0,.585,5.607l.442,1.876a17.576,17.576,0,0,1,.619,6.076,4.474,4.474,0,0,1-3.132,4.113A9.824,9.824,0,0,1,420.514,435.6ZM230.478,337.211a74.27,74.27,0,0,1-11.507-.8.95.95,0,0,1-.833-.928,1.3,1.3,0,0,1,.833-1.332c7.4-2.241,15.426-3.156,23.183-4.04,1.774-.2,3.607-.411,5.4-.633,8.3-1.03,19.209-2.429,30.042-4.12,10.808-1.688,20.576-3.349,29.862-5.078,4.457-.829,8.978-1.708,13.436-2.613.949-.193,1.9-.435,2.917-.691a29,29,0,0,1,6.936-1.177,9.9,9.9,0,0,1,3.678.646,3.72,3.72,0,0,1,2.31,2.62,2.993,2.993,0,0,1-.882,2.787c-2.7,2.708-6.474,3.28-10.121,3.833-.7.107-1.428.217-2.131.34l-.383.069c-5.063.937-10.255,1.847-15.431,2.705-9.861,1.633-19.67,3.056-29.153,4.229-11.22,1.389-21.067,2.426-30.106,3.172l-3.893.32C240.116,336.877,235.274,337.211,230.478,337.211Zm242.352-46.328a3.51,3.51,0,0,1-3.058-1.756c-3.93-6.527-5.931-14.058-7.865-21.342-.974-3.668-1.981-7.458-3.221-11.072-1.618-4.715-3.374-9.47-5.071-14.068l0-.007c-2.088-5.658-4.246-11.5-6.168-17.325a130.685,130.685,0,0,1-5.228-21,80.819,80.819,0,0,1-.637-21.494l-.045-.075a1.78,1.78,0,0,1-.1-.175l-1.143-2.5C437.223,173.4,434.215,167.437,428.5,162c-1.439-1.37-2.932-2.723-4.375-4.032-4.468-4.051-9.087-8.239-12.607-13.395a31.009,31.009,0,0,1-4.148-8.645A36.361,36.361,0,0,1,405.907,127c-.28-6.028.651-12.307,1.551-18.379.56-3.774,1.138-7.674,1.426-11.5l.139-1.984c.253-3.832.23-8.046-1.852-10.252-1.758-1.864-5.19-2.737-8.218-3.507-1.223-.311-2.375-.6-3.318-.938a184.559,184.559,0,0,1-24.755-10.679A157.119,157.119,0,0,1,349.169,56.2l-3.458-2.6c-5.476-4.133-11.128-8.634-14.769-14.215a.887.887,0,0,1,0-.916.915.915,0,0,1,.776-.517A.747.747,0,0,1,332,38a87.2,87.2,0,0,1,13.135,7.216l.013.008c1.388.869,2.824,1.769,4.243,2.621a6.953,6.953,0,0,1,.31-.633A72.443,72.443,0,0,0,357.2,27.125a75.376,75.376,0,0,0,1.348-21.409A5.153,5.153,0,0,1,359.792,1.7,5.746,5.746,0,0,1,364.035,0a6.762,6.762,0,0,1,4.216,1.432,5.912,5.912,0,0,1,2.2,4.284,84.518,84.518,0,0,1-10.468,47.51c-.039.07-.081.135-.122.2l-.065.1c5.835,3.037,10.693,5.376,15.287,7.358,7.132,3.078,13.768,5.594,20.288,7.69,1.762.567,3.6,1.027,5.544,1.513,4.84,1.211,9.839,2.462,13.593,5.452A17.821,17.821,0,0,1,420,83.106a28.773,28.773,0,0,1,1.8,9.467c.263,6.668-1.062,13.878-2.127,19.671-.131.714-.267,1.45-.394,2.16l-.331,1.867c-1.038,5.975-1.836,12.3.743,18.171,2.513,5.722,7.328,10.041,11.985,14.218l.053.047q.6.535,1.186,1.066l1,.9c4.68,4.264,9.444,8.941,12.595,14.245,2.595-5.366,6.05-9.9,9.709-14.694l.013-.017c.468-.613.952-1.248,1.432-1.882,2.439-3.22,1.486-4.717-.094-7.2-.37-.581-.789-1.24-1.2-1.982a21.236,21.236,0,0,1-2.252-5.8,17.005,17.005,0,0,1-.2-6.2,18.521,18.521,0,0,1,1.778-5.515,24.011,24.011,0,0,1,3.209-4.766,43.879,43.879,0,0,1,8.789-7.577,155.366,155.366,0,0,1,13.461-7.905c3.27-1.775,6.65-3.61,9.871-5.587a318.622,318.622,0,0,0,44.861-32.952.465.465,0,0,1,.313-.119.524.524,0,0,1,.454.262.4.4,0,0,1-.031.425A174.887,174.887,0,0,1,497.212,106.5c-5.438,4.209-11.234,7.886-16.84,11.442-1.058.671-2.011,1.276-2.965,1.885l-1.937,1.243c-3.112,2.016-6.152,4.27-7.3,7.079-.938,2.286.383,4.175,1.659,6,.4.571.811,1.16,1.148,1.753a18.471,18.471,0,0,1,2.173,5.819,15.905,15.905,0,0,1,.006,5.608,23.924,23.924,0,0,1-5.176,10.528l-.247.308c-5.361,6.606-9.319,12.688-11.209,20.894-1.866,8.1-1.861,16.95.015,27.05,1.687,9.083,4.652,17.974,7.6,26.23l.237.661c.788,2.2,1.6,4.424,2.389,6.58l.01.026c2.453,6.718,4.987,13.661,7.121,20.611l.776,2.541c2.568,8.5,4.636,16.837,1.782,25.491A3.813,3.813,0,0,1,472.829,290.883Zm31.978-121.16c-.784,0-1.584-.03-2.378-.088a32.037,32.037,0,0,1-13.44-3.855A29.646,29.646,0,0,1,484.25,162c-3.026-2.744-6.154-5.581-9.615-5.581a6.262,6.262,0,0,0-1.939.311.561.561,0,0,1-.173.028.717.717,0,0,1-.633-.49.548.548,0,0,1,.166-.635,8.047,8.047,0,0,1,5.211-1.9c3.461,0,7.01,2.053,10.442,4.039a34.208,34.208,0,0,0,6.424,3.176,25.026,25.026,0,0,0,27.5-8.668,279.066,279.066,0,0,0,19.108-27.891,135.257,135.257,0,0,0,7.978-14.936,50.963,50.963,0,0,0,2.823-9.086,65.919,65.919,0,0,1,1.989-7.033,6.8,6.8,0,0,1,2.813-3.462,7.8,7.8,0,0,1,4.087-1.158,6.422,6.422,0,0,1,4.685,1.86A5.923,5.923,0,0,1,566.6,95.1c-.31,5.565-2.529,10.71-4.674,15.686q-.307.712-.612,1.424l-.252.592a109.736,109.736,0,0,1-8.63,16.444,208.942,208.942,0,0,1-22.051,28.292,39.248,39.248,0,0,1-11.56,8.879A31.425,31.425,0,0,1,504.807,169.723ZM562.959,84.7a6.079,6.079,0,0,1-4.194-1.851A118.475,118.475,0,0,1,546.025,68.8a57.7,57.7,0,0,1-9.1-16.509,1.007,1.007,0,0,1,.16-.922,1.215,1.215,0,0,1,.959-.508.965.965,0,0,1,.534.159,82.467,82.467,0,0,1,8.951,7.1l0,0c1.345,1.172,2.735,2.383,4.128,3.522,4.831,3.949,9.725,7.836,14.548,11.553a6.88,6.88,0,0,1,2.524,3.5,6,6,0,0,1-.1,3.647A6.237,6.237,0,0,1,562.959,84.7ZM529.246,65.271a6.181,6.181,0,0,1-3.885-1.408,41.312,41.312,0,0,1-13.493-19.84,43.7,43.7,0,0,1-2.039-11.9,42.9,42.9,0,0,1,1.343-12.111,5.347,5.347,0,0,1,5.388-4.23,6.68,6.68,0,0,1,5.133,2.39,5.455,5.455,0,0,1,1.014,4.785l-.054.22a30.407,30.407,0,0,0,.676,17.577,32.325,32.325,0,0,0,10.1,14.411l.348.283a5.283,5.283,0,0,1,1.878,2.659,4.592,4.592,0,0,1-.114,2.789A6.909,6.909,0,0,1,529.246,65.271Z" transform="translate(24 7)"></path></g><g transform="translate(225 0)"><g><g id="head_Bun_2" data-name="head/Bun 2"><path id="_Skin" data-name="âœ‹ Skin" d="M360.5,209.076c-2.376-30.744,1.306-62.968-10.548-92.19C329.286,68.4,271.33,52.235,226.4,33.776c-18-5.319-78.569-6.062-99.645-13.1-47.7-15.932-59.1-34.914-97-4.58A41.2,41.2,0,0,0,16.434,34.6l.12.033a10.259,10.259,0,0,0,1.939,8.854C2.059,60.289-4.818,85.473,3.614,107.834c27.517,58.189,26.223,89.652,17.357,152.208-11.578,58.4,14.879,79.733,58.7,111.509-1.784,3.459-2.154,8.056.172,11.108,50.667,71.2,146.2,105.193,228.053,69.055,33.225-14.788,48.058-50.171,56.523-82.1,9.861-35.749,12.891-73.419,4.863-109.835C366.039,242.939,361.821,226.219,360.5,209.076Z" transform="translate(37 34.68)" fill="#d08b5b"></path><path id="bandana" d="M0,121.863l30.127,20.07L137.966,28.245,102.079,0S36.973,48.118,24.171,60.818,0,121.863,0,121.863Z" transform="translate(34.604 34.68)" fill="#9fd8e5"></path><path id="_Ink" data-name="ðŸ– Ink" d="M384.558,604.7a151.3,151.3,0,0,1-36.1-4.522,185.333,185.333,0,0,1-24.524-7.962,14.644,14.644,0,0,1-6.271-4.29,5.77,5.77,0,0,1-1.3-4.564c.459-2.4,2.717-4.009,5.618-4.009a9.491,9.491,0,0,1,3,.517,219.121,219.121,0,0,0,24.293,6.627,150.865,150.865,0,0,0,30.7,3.479,98.535,98.535,0,0,0,12.706-.788c16.34-2.136,29.921-5.723,41.52-10.965A94.54,94.54,0,0,0,452.37,567.5a88.027,88.027,0,0,0,15.72-15.39,102.812,102.812,0,0,0,12.736-20.939,145.116,145.116,0,0,0,9.216-27.368,227.9,227.9,0,0,0,5.159-34.678,370.83,370.83,0,0,0,.564-42.868c-.335-8.264-1-16.668-1.647-24.795-.75-9.451-1.525-19.22-1.783-28.825-.185-7.012-.269-14.137-.351-21.026-.122-10.288-.248-20.927-.71-31.383l-.256-5.957c-.3-7.031-.62-13.923-1.143-20.923-.192-.823-.377-1.663-.556-2.476-.408-1.856-.829-3.771-1.365-5.614a120.666,120.666,0,0,0-8.21-20.91,5.8,5.8,0,0,1-2.5,1.14,40.3,40.3,0,0,1-7.178.678,30.554,30.554,0,0,1-12.682-2.667,31.225,31.225,0,0,1-8.16-5.29,12.45,12.45,0,0,1-2.59-3.07l-.234,0a12.835,12.835,0,0,1-4.42-.748A8.63,8.63,0,0,1,438.414,252a8.533,8.533,0,0,1-2.033-3.875,6.981,6.981,0,0,1,.3-3.79l.092-.245-.221-.08a38.48,38.48,0,0,1-13.67,16.9,43.651,43.651,0,0,1-15.052,6.586,74.682,74.682,0,0,1-16.417,1.884c-.543.008-1.094.012-1.639.012-11.593,0-23.7-1.775-35.1-3.592-3.783-.6-6.667-1.167-9.35-1.84-.046.046-.092.095-.14.146-.075.08-.151.161-.23.234a34.875,34.875,0,0,1-11.082,7.205,33.419,33.419,0,0,1-12.569,2.44,35.1,35.1,0,0,1-13.949-2.925,49.467,49.467,0,0,1-10.4-6.171A72.069,72.069,0,0,1,288,256.668c-.086,3.336-.253,6.387-.51,9.329l-.112,1.228c-.567,5.9-1.683,11.92-5.969,16.013a14.693,14.693,0,0,1-10.524,4.068,25.2,25.2,0,0,1-7.552-1.28,42.307,42.307,0,0,1-7.263-3.138c.01.21.01.433.01.65,2.021,6.868,4.086,13.861,6.083,20.624l.041.14.465,1.576.474,1.588q.243.8.49,1.61l.005.017c1.43,4.684,2.909,9.527,3.341,14.5.471,5.419-1.14,10.719-4.311,14.177a11.994,11.994,0,0,1-9.043,4.009,15.7,15.7,0,0,1-4.527-.707c-5.176-1.556-9.429-5.405-13.542-9.128l-.013-.011c-.791-.716-1.538-1.392-2.3-2.057l-2.988-2.584a337.742,337.742,0,0,1,9.506,38.493,246.517,246.517,0,0,1,4.084,39.318,2.593,2.593,0,0,1-2.56,2.56c-.273.011-.552.017-.829.017a24.621,24.621,0,0,1-8.971-1.786,5.165,5.165,0,0,1-.55-.05,37.027,37.027,0,0,1-15-5.67,27.846,27.846,0,0,1,1.219,10.45.94.94,0,0,1-.939.825.7.7,0,0,1-.72-.6,24.571,24.571,0,0,0-9.549-14.372,29.43,29.43,0,0,0-7.9-4.292,25.769,25.769,0,0,0-8.694-1.564,21.987,21.987,0,0,0-4.09.378,31.57,31.57,0,0,0-17.393,9.875,36.062,36.062,0,0,0-5.718,8.342,36.606,36.606,0,0,0-3.23,9.663,49.41,49.41,0,0,0,1.4,22.392,56.585,56.585,0,0,0,4.258,10.635,51.172,51.172,0,0,0,6.205,9.283c3.485,4.127,9.234,9.3,16.83,10.51a22.1,22.1,0,0,0,3.437.27,21.011,21.011,0,0,0,5.894-.83,31.276,31.276,0,0,0,3.055-1.144l.645-.266a17.1,17.1,0,0,1,2.681-.752,14.834,14.834,0,0,0,2.859-.838,4.884,4.884,0,0,1,2.009-.444,4.127,4.127,0,0,1,3.7,6.155c-1.674,3.4-3.189,5.709-5.98,7.47a52.474,52.474,0,0,1,3.957,5.868c.484.8.866,1.426,1.113,1.761a176.756,176.756,0,0,0,12.24,14.98,127.692,127.692,0,0,0,14.6,13.41l2.182,1.723c4.969,3.941,9.367,7.664,12.878,13.326a6.683,6.683,0,0,1,.046,6.851,7.339,7.339,0,0,1-2.454,2.621,6.576,6.576,0,0,1-3.533,1.039h-.088a29,29,0,0,1-11.408-2.566,40.845,40.845,0,0,1-9.835-6.359c-6.585-5.625-11.913-13.044-15.347-18.135-1.166-1.739-2.3-3.63-3.38-5.62a12.01,12.01,0,0,1-1.27,1.7l.931,2.5a5.6,5.6,0,0,1-.612,5.368,7.429,7.429,0,0,1-2.81,2.371,8.218,8.218,0,0,1-3.64.875,6.433,6.433,0,0,1-3.15-.784,5.832,5.832,0,0,1-2.369-2.532,104.85,104.85,0,0,0-8.66-14.2,7.365,7.365,0,0,1-4.82-2.93c-.852-1.235-1.754-2.5-2.626-3.715-1.848-2.585-3.76-5.258-5.445-8.005-1.3-1.233-2.688-2.476-4.25-3.8l-.214.188-.013.011c-.343.3-.7.611-1.033.93a53.02,53.02,0,0,1-6.86,11.51l-.6.762a58.428,58.428,0,0,1-9.234,9.547,27.18,27.18,0,0,1-11.687,5.731,2.928,2.928,0,0,1-.546.051,3.353,3.353,0,0,1-3.029-2.09,2.466,2.466,0,0,1,.744-2.822,95.359,95.359,0,0,1,7.971-6.208,69.166,69.166,0,0,0,10.749-8.952,67.342,67.342,0,0,0,7.418-9.7l.492-.8c.328-.536.681-1.1,1.111-1.78-2.516-1.714-5.065-3.461-7.53-5.15-4.125,3.524-9.081,5.95-13.874,8.3a96.977,96.977,0,0,0-9.676,5.2l-.76.5a6.441,6.441,0,0,1-3.61,1.166,6.314,6.314,0,0,1-3.839-1.361,8.25,8.25,0,0,1-2.549-3.336,6.846,6.846,0,0,1,1.348-7.679A151.066,151.066,0,0,0,135.3,466.246l0,0h0c1.393-1.825,2.832-3.712,4.269-5.531a39.892,39.892,0,0,1-4.2-15.827c-.181-1.62-.327-3.283-.455-4.75v-.008h-.253a19.293,19.293,0,0,1-10.828-3.561l-1.249-.89a37.8,37.8,0,0,1-11.335,1.8c-.305,0-.613,0-.915-.012a10.592,10.592,0,0,1-5.817-1.836A10.172,10.172,0,0,1,101,431.341a10.966,10.966,0,0,1-.805-5.96,11.436,11.436,0,0,1,2.707-5.873,20.973,20.973,0,0,1,16.013-6.867,24.221,24.221,0,0,1,9.016,1.737c.264-.137.548-.289.82-.44a9.69,9.69,0,0,1,.144-4.975l-.132-.894a23.11,23.11,0,0,1-3.517-9.478,21.892,21.892,0,0,1,.336-8.057,13.655,13.655,0,0,1,.624-1.825c.117-.3.238-.6.348-.911a17.687,17.687,0,0,1-1.207-5.292c-.175-.208-.377-.453-.562-.712a14.309,14.309,0,0,1-2.727-9.227,14.529,14.529,0,0,1,3.367-8.391c.019-.314.048-.617.086-.9-.228-.511-.443-1.044-.639-1.582-4.62-4.661-6.642-9.38-6.183-14.427a15.02,15.02,0,0,1,3.85-8.815,5,5,0,0,1,.044-3.495,41.794,41.794,0,0,1-2.455-14.627,65.272,65.272,0,0,1,1.932-15.43,13.613,13.613,0,0,1-.761-4.981,15.284,15.284,0,0,1,4.407-9.958,14.885,14.885,0,0,1,4.5-3.174,13.081,13.081,0,0,1,5.421-1.188h.149a13.09,13.09,0,0,1,2.629.306l.012-.179a20.187,20.187,0,0,1,1.82-6.206,3.936,3.936,0,0,1-1.218-.7,68.672,68.672,0,0,1-15.629,6.015,4.744,4.744,0,0,1-1.15.142,5.5,5.5,0,0,1-4.693-2.873,4.379,4.379,0,0,1,.2-4.614,33.7,33.7,0,0,1,3.821-4.765,49.085,49.085,0,0,0-5.969.4,7.022,7.022,0,0,1-.9.057,9.768,9.768,0,0,1-5.01-1.549,13.9,13.9,0,0,1-4.1-3.849c-2.92,2.84-5.888,5.706-8.758,8.479l-.023.022a11.229,11.229,0,0,1-7.9,3.34,11.746,11.746,0,0,1-7.793-3.052,12.593,12.593,0,0,1-4.107-7.868,16.681,16.681,0,0,1-6.08-3.02,101.7,101.7,0,0,1-18.141,5.906,106.962,106.962,0,0,1-19.019,2.494c-.158.006-.318.01-.474.01a10.576,10.576,0,0,1-5.681-1.612,11.836,11.836,0,0,1-3.925-4.1,12.93,12.93,0,0,1-1.745-6.036,11.786,11.786,0,0,1,1.5-6.24,60.041,60.041,0,0,1,10.65-13.66,124.923,124.923,0,0,1-19.879,4.3,6.158,6.158,0,0,1-.811.052,11.064,11.064,0,0,1-5.592-1.813,10.076,10.076,0,0,1-3.927-4.159,44.41,44.41,0,0,1,1.33-39.08c.2-.4.423-.8.638-1.175l0-.006.158-.28c.678-1.688,1.415-3.35,2.191-4.94A25.254,25.254,0,0,1,1.44,180.624a32.681,32.681,0,0,1,2.413-16.246,10.414,10.414,0,0,1-1.21-9.19,80.525,80.525,0,0,1,6.071-12.564,77.1,77.1,0,0,1,8.119-11.206,24.271,24.271,0,0,1-2.75-11.638,29.611,29.611,0,0,1,1.217-8.155,30.337,30.337,0,0,1,8.522-13.847,41.25,41.25,0,0,1,16.92-9,48.248,48.248,0,0,1,9.8-12.19l.011-.024c.145-.319.294-.645.459-.966A34.421,34.421,0,0,1,63.273,62.414a38,38,0,0,1,7.942-3.76,42.457,42.457,0,0,1,8.629-1.946,12.57,12.57,0,0,1,2.447-6.191,10.862,10.862,0,0,1,5.373-3.889,36.65,36.65,0,0,1,5.449-10.87,15.469,15.469,0,0,1,4.738-4.287,11.383,11.383,0,0,1,11.622,0,71.829,71.829,0,0,1,9.48,6.459,13.036,13.036,0,0,1,4.568-1.163l.432-.027,9.859-.5c2.617-1.16,5.274-2.376,7.843-3.551,1.4-.642,2.991-1.369,4.537-2.069a33.146,33.146,0,0,1,8.27-5.03,33.682,33.682,0,0,1,10.43-2.51,89.562,89.562,0,0,1,8.64-2.39,95.455,95.455,0,0,1,20.331-2.274c.277,0,.556,0,.829,0,.148-1.876.217-3.759.2-5.6l-.014-.945a11.11,11.11,0,0,1,2.986-7.816A12.588,12.588,0,0,1,205.244.138,12.261,12.261,0,0,1,207.058,0a10.751,10.751,0,0,1,6.819,2.391,14.777,14.777,0,0,1,4.372,6.018l.116.29c.68,1.753,1.449,3.507,2.35,5.36a41.636,41.636,0,0,1,9.1-3.191,43.943,43.943,0,0,1,9.731-1.1,38.111,38.111,0,0,1,16.008,3.371,30.132,30.132,0,0,1,6.817,4.35,27.876,27.876,0,0,1,5.439,6.247,23.286,23.286,0,0,1,3.123,7.575,30.6,30.6,0,0,1,.635,7.956c-.217,5.38-1.52,10.853-2.781,16.145-.3,1.244-.6,2.531-.887,3.784l-1.72,7.629a13.051,13.051,0,0,1,4.148,4.236,10.274,10.274,0,0,1,1.566,5.592l-.014.3-.7,10.64a55.343,55.343,0,0,0,6.06-7.31c1.275-2.335,2.637-4.6,4.05-6.72a11.772,11.772,0,0,1,9.916-5.655,12.673,12.673,0,0,1,10.6,5.953,11.663,11.663,0,0,1,.123,11.763,72,72,0,0,1-4.5,7.581,67.366,67.366,0,0,0-4.51,11.01c3.667,1.6,5.913,5.071,6.16,9.53a28.151,28.151,0,0,1-.715,8.134,27.567,27.567,0,0,1-2.9,7.275,30.478,30.478,0,0,1-4.794,6.263,35.712,35.712,0,0,1-6.4,5.1,10.808,10.808,0,0,1-5.8,1.747,10.276,10.276,0,0,1-2.48-.307c-.425.573-.908,1.224-1.36,1.87a60.338,60.338,0,0,1,10.12,10.45,182.965,182.965,0,0,1,26.56-1.96c6.055-2.966,13.3-4.47,21.52-4.47a83.408,83.408,0,0,1,13.951,1.261,139.372,139.372,0,0,1,14,3.4l.005,0c2.639.739,5.369,1.5,8.078,2.159a104.707,104.707,0,0,0,14.111,2.083c3.1.313,6.3.636,9.44,1.147a42.336,42.336,0,0,1,13.713,4.613,32.252,32.252,0,0,1,10.376,8.887c5.54.166,11.78,2.29,17.57,5.98,7.854,5.008,15.811,10.147,23.505,15.117l.041.027c4.239,2.738,8.623,5.57,12.954,8.356,4.483,2.885,6.457,7.557,5.558,13.157l-.059.343-.409,2.22.962,1.366.84,1.184c3.5,4.926,7.117,10.019,9.347,15.39a178.445,178.445,0,0,1,12.06,20.119,146.339,146.339,0,0,1,11.471,29.4c.625,2.4,1.333,5.115,1.78,7.78a20.378,20.378,0,0,1-.432,7.615v.005c-.151.8-.308,1.633-.437,2.5-.315,2.149-.538,4.35-.754,6.477-.236,2.33-.48,4.737-.846,7.093a5.035,5.035,0,0,1-2.014,3.361,6.563,6.563,0,0,1-3.656,1.179c1,7.582,1.708,15.144,2.41,22.87,1.053,11.783,1.728,23.633,2.2,32.64,2.907,4.222,8.887,7.633,13.29,8.82a19.265,19.265,0,0,0,4.981.63c4.578,0,9.145-1.425,13.009-2.819a3.7,3.7,0,0,1,1.259-.227,3.961,3.961,0,0,1,3.377,2.128,4.318,4.318,0,0,1,.125,4.3,15.175,15.175,0,0,1-6.347,6.061,18.121,18.121,0,0,1-8.238,1.83,27.149,27.149,0,0,1-11.445-2.681,24.439,24.439,0,0,1-9.481-7.629c.142,3,.3,6.049.446,9l0,.038.023.451.148,2.871c.3,5.575.663,11.286,1.015,16.81.888,13.936,1.806,28.342,1.832,42.507.014,7.633-.226,14.559-.734,21.173a188.772,188.772,0,0,1-2.723,20.93,131.439,131.439,0,0,1-14.652,40.143,129.37,129.37,0,0,1-25.957,32.5A125.413,125.413,0,0,1,433.7,594.761a122.648,122.648,0,0,1-41.217,9.707C389.87,604.621,387.2,604.7,384.558,604.7ZM198.334,484.188h0c-1.01.216-2.006.384-2.96.5l.039.094c.278.688.566,1.4.851,2.126.822.462,1.636.893,2.42,1.28a20.544,20.544,0,0,1-.35-4Zm-50.671-13.516a22.414,22.414,0,0,1,2.54.146l0-.149-.08-.027a3.6,3.6,0,0,1-.452-.175,22.158,22.158,0,0,1-2.711-1.547l-.665,1.225-.284.529-.034.064C146.538,470.694,147.106,470.672,147.663,470.672ZM134.6,289.878c-1.013.034-1.373.512-1.368.825a.248.248,0,0,0,.249.268c.11,0,.408-.067.8-.684A3.06,3.06,0,0,1,134.6,289.878ZM249.04,152.356c-9.2.242-19.142,2.9-29.552,7.887a136.73,136.73,0,0,0-25.774,16.479,175.248,175.248,0,0,0-18.349,16.992,224.706,224.706,0,0,0-16.04,19.2,208.751,208.751,0,0,0-6.651,20.3c-.79,2.9-1.4,5.874-1.99,8.749l0,.013c-.329,1.6-.669,3.259-1.037,4.889l-.32,1.4a21.979,21.979,0,0,0-1.849,4.82,14.226,14.226,0,0,0,6.792,3.757,4.211,4.211,0,0,1,2.087,1.207,44.056,44.056,0,0,0,4.994-11.1l.039-.182a229.783,229.783,0,0,1,13.1-19.167,274.425,274.425,0,0,1,20.589-24.305A197.675,197.675,0,0,1,218.8,182.068a149.777,149.777,0,0,1,20.556-13.039,143.076,143.076,0,0,1,22.394-9.432A46.935,46.935,0,0,0,249.04,152.356ZM212.754,443.809c-.106,0-.214,0-.32-.011-6.169-.422-10.373-5.131-14.439-9.684-1.454-1.628-2.827-3.165-4.291-4.526a96.218,96.218,0,0,0-19.571-14.34,1.1,1.1,0,0,1-.529-1.257,1.118,1.118,0,0,1,1-.924h.121a77.4,77.4,0,0,1,12.495,1.612,54.336,54.336,0,0,1,11.894,4.13l.691.338a56.846,56.846,0,0,1,11.977,7.517,20.123,20.123,0,0,1,4.526,5.4,10.985,10.985,0,0,1,1.376,6.48,6.774,6.774,0,0,1-1.5,3.592A4.448,4.448,0,0,1,212.754,443.809Z" transform="translate(-100 -97.001)"></path></g></g><g transform="translate(159 186)"><g><path d="M175.373 49.5872C175.699 49.4437 175.991 49.2049 176.203 48.8583C178.978 44.3099 179.267 38.8813 178.039 33.5637C176.563 27.172 172.899 20.9588 168.944 16.7559C163.959 11.4582 157.895 7.75374 151.246 4.94731C150.762 4.74287 150.267 4.53098 149.763 4.31514C142.964 1.40541 134.597 -2.01031 127.865 1.47064C125.161 2.86951 123.673 5.20381 123.256 7.7496C122.814 10.4534 123.597 13.4099 125.462 15.7216C128.557 19.5594 133.339 20.3533 138.087 21.0465C139.602 21.2677 141.106 21.486 142.53 21.8229C147.429 22.9821 152.604 24.4361 157.104 26.7244C166.253 31.3762 170.54 38.5898 172.747 48.2853C172.837 48.6781 173.037 48.9988 173.3 49.2406C173.575 49.4928 173.921 49.6579 174.285 49.7192C174.651 49.7808 175.032 49.7375 175.373 49.5872ZM58.3942 19.1934C55.0693 22.4329 51.1339 22.9347 47.1526 23.381C44.9405 23.6313 43.1746 23.8331 41.4369 24.2252C36.6605 25.3034 31.9393 26.9272 27.6319 29.2659C23.1292 31.7106 18.2224 34.659 14.6922 38.4361C13.8528 39.3349 13.0615 40.278 12.2691 41.2232C11.5465 42.0851 10.8505 42.9149 10.1169 43.7149C9.27449 44.6339 8.47449 45.597 7.67875 46.5576C7.1867 47.3681 7.0895 47.5675 6.99041 47.775C6.8413 48.0869 6.66786 48.4359 6.46976 48.8103C6.19845 49.323 5.88066 49.8843 5.54784 50.3932C4.9941 51.3234 4.69697 51.5796 4.44022 51.6942C4.01419 51.8839 3.61015 51.9774 3.21817 51.9268C2.85064 51.8793 2.50438 51.7028 2.16244 51.4138C0.455387 49.9715 -0.0480658 47.6046 0.00353523 45.092C0.0818393 41.2793 1.48813 37.0578 2.78452 34.4628C5.79888 28.4331 9.97938 22.1649 15.0062 17.6646C20.7422 12.5276 27.0177 8.63869 34.2256 5.95894C38.705 4.29304 43.8913 2.76391 48.7713 2.95706C52.284 3.09609 55.6373 4.14026 58.4066 6.74782C60.1072 8.34853 60.9235 10.6254 60.9235 12.9006C60.9235 15.2211 60.0757 17.5554 58.3942 19.1934ZM164.634 78.3299C166.478 78.8824 167.779 78.6212 169.441 77.7551C170.719 77.0896 171.589 76.0387 172.088 74.8117C172.599 73.5559 172.706 72.1077 172.454 70.7659C171.405 65.1948 168.042 60.2513 163.503 57.0672C159.091 53.9728 153.589 52.5435 148.048 53.7341C144.003 54.6036 138.007 58.4424 134.85 63.1243C133.504 65.1203 132.671 67.2595 132.581 69.3723C132.495 71.387 133.008 73.4183 135.676 76.096C135.935 76.177 136.208 76.2208 136.477 76.2208C137.138 76.2208 137.821 75.9439 138.274 75.5441C139.469 74.4935 140.311 73.1636 141.178 71.7329C141.641 70.9679 142.102 70.1976 142.69 69.5195C144.449 67.4927 147.002 65.7736 149.683 65.3262C152.167 64.911 154.406 65.6469 156.181 67.0355C158.256 68.6601 159.713 71.1522 160.252 73.8146C160.472 74.8933 161.036 75.8657 161.818 76.6477C162.607 77.4367 163.615 78.0237 164.634 78.3299ZM46.1749 69.1109C43.7479 67.5587 40.8928 67.0259 37.7287 68.4655C35.256 69.5899 30.9192 73.3385 27.9011 78.2662C25.8363 81.6374 24.3721 85.5922 24.6769 89.7117C24.7477 90.6684 24.3942 91.3738 23.8366 91.8954C23.3962 92.3073 22.7601 92.61 22.013 92.7047C21.3786 92.785 20.6686 92.7125 20.0913 92.5324C18.9931 92.1896 18.4119 91.4772 18.1929 90.8957C16.0797 85.2836 16.9901 79.0208 19.3585 73.3707C22.5547 65.7456 28.3592 59.3585 32.1622 57.2993C38.6698 53.7742 46.347 53.612 52.8639 57.2031C58.4114 60.2596 61.8802 65.1942 65.3301 70.2242C66.0635 71.2934 66.7914 72.3548 67.5436 73.3976C69.0513 75.487 69.2013 77.5593 68.6175 79.3363C67.9707 81.3049 66.3215 82.9663 64.2592 83.8357C62.353 84.6393 60.1407 84.7524 58.1831 83.9268C56.5293 83.2293 55.0117 81.8695 54.0513 79.5625C52.434 75.6771 49.7393 71.3904 46.1749 69.1109ZM127.748 115.98C135.872 104.601 124.366 93.898 116.814 89.3079C114.836 87.8879 116.406 83.1842 120.634 83.9112C159.031 90.5082 139.136 156.649 90.112 120.354C84.2754 115.645 91.3434 105.275 97.6342 109.307C97.9532 109.552 98.2876 109.81 98.6364 110.08C105.704 115.544 118.636 125.542 127.748 115.98ZM117.042 185.1C109.675 187.233 101.768 187.424 94.2589 185.221C87.4481 183.222 80.4549 178.823 75.4423 173.003C70.9894 167.832 68.1055 161.549 68.2187 154.842C68.2316 154.076 68.5055 153.436 68.9268 152.94C69.3804 152.406 70.014 152.039 70.6926 151.88C71.3906 151.716 72.1285 151.774 72.7568 152.059C73.3256 152.318 73.8129 152.757 74.1176 153.398C74.8879 154.41 75.6553 155.407 76.4257 156.376C82.6196 164.024 88.618 169.74 97.9319 171.79C102.985 172.903 108.032 172.409 112.663 170.712C117.62 168.895 122.102 165.7 125.613 161.612C127.2 159.765 129.074 159.011 130.905 158.998C132.982 158.983 135.034 159.948 136.579 161.49C138.099 163.006 139.116 165.065 139.209 167.219C139.29 169.11 138.673 171.085 137.032 172.848C131.626 178.652 124.621 182.904 117.042 185.1Z" transform="translate(54.00004 55.05923)" fill-rule="evenodd" stroke="none"></path></g></g><g transform="translate(123 338)"></g><g transform="translate(47 241)"><g><path d="M375.513 33.9959C378.273 31.6829 383.089 31.1349 386.423 31.1279C394.028 32.5829 390.88 44.1729 376.385 36.9629C398.166 128.052 258.709 131.937 282.237 45.3469C268.157 41.9599 253.29 41.6839 240.365 48.1139C251.522 87.8139 214.401 125.982 171.734 116.181C144.179 109.783 125.789 88.4229 134.308 57.0269C128.899 58.7229 118.76 57.3109 115.622 53.0899C104.775 52.1634 93.9913 50.8415 83.2204 49.5212C59.091 46.5633 35.0273 43.6135 10.4674 45.1359C7.12749 45.5983 7.31436 47.952 7.50111 50.304C7.68714 52.6469 7.87304 54.9883 4.57241 55.4569C-3.01759 54.7649 -0.0355915 41.9389 5.39841 39.8539C13.0234 34.3889 78.5984 39.8119 116.105 49.6479C121.083 46.3825 128.583 47.3802 134.493 48.1664C135.445 48.2929 136.355 48.414 137.206 48.5109C144.594 30.0029 168.272 6.93191 192.028 10.8229C213.793 12.0919 232.079 20.6889 239.509 45.2399C250.854 34.9489 271.426 31.6259 284.509 39.4079C291.765 23.0939 304.532 10.8229 321.737 5.28991C343.585 -10.2001 368.707 11.0429 375.513 33.9959ZM358.311 87.4579C346.17 100.003 325.902 103.603 309.749 96.8749C268.273 79.5459 288.574 25.4959 320.561 10.9809C324.557 9.98491 329.894 7.62191 334.761 7.08591C334.928 7.0043 335.168 7.04274 335.465 7.09029C335.954 7.1686 336.598 7.27161 337.32 6.90391C372.591 10.8419 380.623 65.5939 358.311 87.4579ZM164.916 105.906C185.6 114.302 210.916 108.73 224.533 90.6689C249.948 57.3679 225.561 0.903908 166.504 23.0949C138.547 41.8849 124.054 89.8139 164.916 105.906ZM135.953 50.6509C135.915 50.6329 135.877 50.6239 135.838 50.6059C136.054 50.5109 136.27 50.4159 136.485 50.3189C136.415 50.5019 136.339 50.6829 136.271 50.8659C136.165 50.7929 136.072 50.7079 135.953 50.6509Z" transform="translate(13.99969 7.999794)" fill-rule="evenodd" stroke="none"></path></g></g></g></g></svg>